<svg xmlns="http://www.w3.org/2000/svg" width="16" height="16" fill="currentColor" class="bi bi-first-aid" viewBox="0 0 16 16">
  <path d="M8 1.5a.5.5 0 0 1 .5.5v2h2a.5.5 0 0 1 0 1h-2v2a.5.5 0 0 1-1 0v-2h-2a.5.5 0 0 1 0-1h2v-2a.5.5 0 0 1 .5-.5z"/>
  <path d="M4.5 3.5a.5.5 0 0 1-.5.5v1a.5.5 0 0 1-1 0v-1a.5.5 0 0 1-.5-.5.5.5 0 0 1 .5-.5h1a.5.5 0 0 1 .5.5zM11.5 3.5a.5.5 0 0 1-.5.5v1a.5.5 0 0 1-1 0v-1a.5.5 0 0 1-.5-.5.5.5 0 0 1 .5-.5h1a.5.5 0 0 1 .5.5z"/>
  <path d="M1 8a7 7 0 1 1 14 0A7 7 0 0 1 1 8zm15 0A8 8 0 1 0 0 8a8 8 0 0 0 16 0z"/>
</svg>
