<svg xmlns="http://www.w3.org/2000/svg" width="16" height="16" fill="currentColor" class="bi bi-footprints" viewBox="0 0 16 16">
  <path d="M7.613 10.67a.5.5 0 0 1 .37.858l-2.035 2.849a.5.5 0 0 1-.858-.37l2.035-2.849a.5.5 0 0 1 .488-.488zm-3.08-2.688a.5.5 0 0 1 .37.858l-2.035 2.849a.5.5 0 0 1-.858-.37l2.035-2.849a.5.5 0 0 1 .488-.488zm5.725-3.32a.5.5 0 0 1 .37.858l-2.035 2.849a.5.5 0 0 1-.858-.37l2.035-2.849a.5.5 0 0 1 .488-.488zm-3.08-2.688a.5.5 0 0 1 .37.858l-2.035 2.849a.5.5 0 0 1-.858-.37l2.035-2.849a.5.5 0 0 1 .488-.488z"/>
</svg>