<svg xmlns="http://www.w3.org/2000/svg" width="16" height="16" fill="currentColor" class="bi bi-heart-pulse" viewBox="0 0 16 16">
  <path fill-rule="evenodd" d="M8.5 2.053a.5.5 0 0 0-.999 0L6.783 6.33H3.5a.5.5 0 0 0-.424.793l2.086 3.064-.933 4.2a.5.5 0 0 0 .746.54L8 13.347l3.027 1.586a.5.5 0 0 0 .746-.54l-.933-4.2 2.086-3.064a.5.5 0 0 0-.424-.793h-3.283L8.5 2.053zM5.385 6.83l.8-3.052L8 2.5l1.815 1.278.8 3.052H12.3l-1.5 2.2-1.5 6.5L8 12.5l-1.3 2.03-1.5-6.5-1.5-2.2h2.185z"/>
  <path fill-rule="evenodd" d="M8 4.75a.5.5 0 0 1 .5.5v3.25a.5.5 0 0 1-1 0V5.25a.5.5 0 0 1 .5-.5z"/>
  <path fill-rule="evenodd" d="M8 8.25a.5.5 0 0 1 .5.5v3.25a.5.5 0 0 1-1 0V8.75a.5.5 0 0 1 .5-.5z"/>
</svg>
